<svg width="1358" height="661" xmlns="http://www.w3.org/2000/svg"><path d="M-110-17l12 718 3-354z" fill="#e08a88" stroke="#e08a88"/><path d="M-110-17l15 364 18-301z" fill="#e16e64" stroke="#e16e64"/><path d="M-110-17l33 63L42-127z" fill="#e52a54" stroke="#e52a54"/><path d="M42-127L-77 46 73 61z" fill="#eb4357" stroke="#eb4357"/><path d="M42-127L73 61l153-187z" fill="#f53b56" stroke="#f53b56"/><path d="M226-126L73 61l150 51z" fill="#fb705c" stroke="#fb705c"/><path d="M226-126l-3 238L334-30z" fill="#fe7363" stroke="#fe7363"/><path d="M226-126l108 96 195-26z" fill="#fe6d6d" stroke="#fe6d6d"/><path d="M226-126l303 70 290-63z" fill="#fe7b81" stroke="#fe7b81"/><path d="M334-30L223 112l210-65z" fill="#fe9e70" stroke="#fe9e70"/><path d="M334-30l99 77 96-103z" fill="#fe927a" stroke="#fe927a"/><path d="M529-56L433 47l68 57z" fill="#ffad84" stroke="#ffad84"/><path d="M529-56l-28 160 159 3z" fill="#ffbd90" stroke="#ffbd90"/><path d="M529-56l131 163 59-183z" fill="#fb9f89" stroke="#fb9f89"/><path d="M529-56l190-20 100-43z" fill="#f77d7e" stroke="#f77d7e"/><path d="M719-76l-59 183 114-87z" fill="#f6aa82" stroke="#f6aa82"/><path d="M719-76l55 96 45-139z" fill="#f28378" stroke="#f28378"/><path d="M819-119L774 20 993-83z" fill="#e17b76" stroke="#e17b76"/><path d="M819-119l174 36h283z" fill="#bb5f7a" stroke="#bb5f7a"/><path d="M819-119l457 36 113-17z" fill="#984587" stroke="#984587"/><path d="M993-83L774 20l234 55z" fill="#d5957a" stroke="#d5957a"/><path d="M993-83l15 158 85-99z" fill="#bb7e7f" stroke="#bb7e7f"/><path d="M993-83l100 59 183-59z" fill="#a35285" stroke="#a35285"/><path d="M1093-24l-85 99 126-21z" fill="#af8c87" stroke="#af8c87"/><path d="M1093-24l41 78 142-137z" fill="#97608d" stroke="#97608d"/><path d="M1276-83L1134 54l95 27z" fill="#8b6894" stroke="#8b6894"/><path d="M1276-83l-47 164 181-16z" fill="#7f589e" stroke="#7f589e"/><path d="M1276-83l134 148-21-165z" fill="#7f2fa0" stroke="#7f2fa0"/><path d="M1389-100l21 165 173-95z" fill="#7f23ac" stroke="#7f23ac"/><path d="M1583-30l-173 95 113 62z" fill="#8041b2" stroke="#8041b2"/><path d="M1583-30l-60 157 103 47z" fill="#8052b4" stroke="#8052b4"/><path d="M-77 46l-18 301 48-91z" fill="#e39082" stroke="#e39082"/><path d="M-77 46l30 210L73 61z" fill="#e97c65" stroke="#e97c65"/><path d="M73 61L-47 256l147 25z" fill="#eea77f" stroke="#eea77f"/><path d="M73 61l27 220 123-169z" fill="#f8a872" stroke="#f8a872"/><path d="M223 112L100 281l173-87z" fill="#fec782" stroke="#fec782"/><path d="M223 112l50 82 57 10z" fill="#fecf84" stroke="#fecf84"/><path d="M223 112l107 92L433 47z" fill="#fec47c" stroke="#fec47c"/><path d="M433 47L330 204l171-100z" fill="#ffd287" stroke="#ffd287"/><path d="M501 104L330 204l159 78z" fill="#fff4a2" stroke="#fff4a2"/><path d="M501 104l-12 178 143-2z" fill="#fffcb8" stroke="#fffcb8"/><path d="M501 104l131 176 28-173z" fill="#fef3a9" stroke="#fef3a9"/><path d="M660 107l-28 173 192-5z" fill="#f7fcb1" stroke="#f7fcb1"/><path d="M660 107l164 168-50-255z" fill="#f4e190" stroke="#f4e190"/><path d="M774 20l50 255 99-72z" fill="#e6ea97" stroke="#e6ea97"/><path d="M774 20l149 183 85-128z" fill="#dac781" stroke="#dac781"/><path d="M1008 75l-85 128 196-29z" fill="#c0cf96" stroke="#c0cf96"/><path d="M1008 75l111 99 15-120z" fill="#adab8e" stroke="#adab8e"/><path d="M1134 54l-15 120 110-93z" fill="#9a9d96" stroke="#9a9d96"/><path d="M1229 81l-110 93 163 35z" fill="#8dabac" stroke="#8dabac"/><path d="M1229 81l53 128 128-144z" fill="#8087aa" stroke="#8087aa"/><path d="M1410 65l-128 144 153-7z" fill="#808cbf" stroke="#808cbf"/><path d="M1410 65l25 137 88-75z" fill="#806fbe" stroke="#806fbe"/><path d="M1523 127l-88 75 191-28z" fill="#8076cc" stroke="#8076cc"/><path d="M-47 256l-48 91 179 79z" fill="#e89b8a" stroke="#e89b8a"/><path d="M-47 256L84 426l16-145z" fill="#efa891" stroke="#efa891"/><path d="M100 281L84 426l190-92z" fill="#fabe8e" stroke="#fabe8e"/><path d="M100 281l174 53-1-140z" fill="#fecb9d" stroke="#fecb9d"/><path d="M273 194l1 140 56-130z" fill="#fedb9e" stroke="#fedb9e"/><path d="M330 204l-56 130 127 76z" fill="#fee4a9" stroke="#fee4a9"/><path d="M330 204l71 206 88-128z" fill="#fff1b6" stroke="#fff1b6"/><path d="M489 282l-88 128 164-54z" fill="#fff8b4" stroke="#fff8b4"/><path d="M489 282l76 74 67-76z" fill="#fffeca" stroke="#fffeca"/><path d="M632 280l-67 76 100 29z" fill="#fdfec0" stroke="#fdfec0"/><path d="M632 280l33 105 159-110z" fill="#f7fcbe" stroke="#f7fcbe"/><path d="M824 275L665 385l141 29z" fill="#f3fbad" stroke="#f3fbad"/><path d="M824 275l-18 139 188-73z" fill="#dff2ae" stroke="#dff2ae"/><path d="M824 275l170 66-71-138z" fill="#d7efb9" stroke="#d7efb9"/><path d="M923 203l71 138 125-167z" fill="#c1e2b2" stroke="#c1e2b2"/><path d="M1119 174L994 341l136 47z" fill="#afd4c3" stroke="#afd4c3"/><path d="M1119 174l11 214 152-179z" fill="#95c1ca" stroke="#95c1ca"/><path d="M1282 209l-152 179 119 20z" fill="#8ab9ca" stroke="#8ab9ca"/><path d="M1282 209l-33 199 186-206z" fill="#80a4de" stroke="#80a4de"/><path d="M1435 202l-186 206 225 22z" fill="#8098d8" stroke="#8098d8"/><path d="M1435 202l39 228 131-66zM1435 202l170 162 21-190z" fill="#8080e6" stroke="#8080e6"/><path d="M1626 174l-21 190 12 114z" fill="#8080e4" stroke="#8080e4"/><path d="M-95 347l-3 354 17-193z" fill="#9e7589" stroke="#9e7589"/><path d="M-95 347l14 161 165-82z" fill="#d49880" stroke="#d49880"/><path d="M84 426l-165 82 215 30z" fill="#be9f86" stroke="#be9f86"/><path d="M84 426l50 112 43 1z" fill="#c0ab8b" stroke="#c0ab8b"/><path d="M84 426l93 113 97-205z" fill="#e7c385" stroke="#e7c385"/><path d="M274 334l-97 205 165-31z" fill="#ded58e" stroke="#ded58e"/><path d="M274 334l68 174 59-98z" fill="#efe599" stroke="#efe599"/><path d="M401 410l-59 98 231-11z" fill="#daf3a5" stroke="#daf3a5"/><path d="M401 410l172 87-8-141z" fill="#effab0" stroke="#effab0"/><path d="M565 356l8 141 92-112z" fill="#f1ffb7" stroke="#f1ffb7"/><path d="M665 385l-92 112 158-24z" fill="#defdb1" stroke="#defdb1"/><path d="M665 385l66 88 75-59z" fill="#e3fbaa" stroke="#e3fbaa"/><path d="M806 414l-75 59 152-6z" fill="#d0f7a4" stroke="#d0f7a4"/><path d="M806 414l77 53 111-126z" fill="#d0f0a5" stroke="#d0f0a5"/><path d="M994 341L883 467l112 22z" fill="#baeba3" stroke="#baeba3"/><path d="M994 341l1 148 135-101z" fill="#afdcac" stroke="#afdcac"/><path d="M1130 388L995 489l165 4z" fill="#8dd1b0" stroke="#8dd1b0"/><path d="M1130 388l30 105 89-85z" fill="#81c0b9" stroke="#81c0b9"/><path d="M1249 408l-89 85 171 60z" fill="#56adc2" stroke="#56adc2"/><path d="M1249 408l82 145 127-81z" fill="#589dcb" stroke="#589dcb"/><path d="M1249 408l209 64 16-42z" fill="#6996d0" stroke="#6996d0"/><path d="M1474 430l-16 42 159 6z" fill="#607fd8" stroke="#607fd8"/><path d="M1474 430l143 48-12-114z" fill="#6e80d9" stroke="#6e80d9"/><path d="M-81 508l-17 193H52z" fill="#6646a6" stroke="#6646a6"/><path d="M-81 508L52 701l82-163z" fill="#81709d" stroke="#81709d"/><path d="M134 538L52 701l125-162z" fill="#837ca2" stroke="#837ca2"/><path d="M177 539L52 701l225-73z" fill="#7c77ab" stroke="#7c77ab"/><path d="M177 539l100 89 65-120z" fill="#a2aba4" stroke="#a2aba4"/><path d="M342 508l-65 120 87 8z" fill="#8da9b5" stroke="#8da9b5"/><path d="M342 508l22 128 209-139z" fill="#a9ceb6" stroke="#a9ceb6"/><path d="M573 497L364 636l199 31z" fill="#87bace" stroke="#87bace"/><path d="M573 497l-10 170 81 23z" fill="#7fb7dd" stroke="#7fb7dd"/><path d="M573 497l71 193 87-217z" fill="#a1d6c6" stroke="#a1d6c6"/><path d="M731 473l-87 217 219 29z" fill="#75afcf" stroke="#75afcf"/><path d="M731 473l132 246 20-252z" fill="#90ceb9" stroke="#90ceb9"/><path d="M883 467l-20 252 65-8z" fill="#5ca2cb" stroke="#5ca2cb"/><path d="M883 467l45 244 67-222z" fill="#78c4b8" stroke="#78c4b8"/><path d="M995 489l-67 222 229-87z" fill="#409dcb" stroke="#409dcb"/><path d="M995 489l162 135 3-131z" fill="#5bb0c1" stroke="#5bb0c1"/><path d="M1160 493l-3 131 174-71z" fill="#2f90d2" stroke="#2f90d2"/><path d="M1331 553l-174 71 171 89z" fill="#0061ea" stroke="#0061ea"/><path d="M1331 553l-3 160 100-79z" fill="#004df3" stroke="#004df3"/><path d="M1331 553l97 81 30-162z" fill="#276ce5" stroke="#276ce5"/><path d="M1458 472l-30 162 123 32z" fill="#0e4bf7" stroke="#0e4bf7"/><path d="M1458 472l93 194 66-188z" fill="#305fe9" stroke="#305fe9"/><path d="M1617 478l-66 188 15 179z" fill="#02f" stroke="#02f"/><path d="M-98 701l34 102L52 701z" fill="#6718a6" stroke="#6718a6"/><path d="M52 701L-64 803l102 2z" fill="#6c21a7" stroke="#6c21a7"/><path d="M52 701L38 805l191-34z" fill="#7535aa" stroke="#7535aa"/><path d="M52 701l177 70 48-143z" fill="#7d55ac" stroke="#7d55ac"/><path d="M277 628l-48 143 135-135z" fill="#7f76b9" stroke="#7f76b9"/><path d="M364 636L229 771l153 69z" fill="#7f63bd" stroke="#7f63bd"/><path d="M364 636l18 204 90-34z" fill="#7f72c8" stroke="#7f72c8"/><path d="M364 636l108 170 91-139z" fill="#7f85d0" stroke="#7f85d0"/><path d="M563 667l-91 139 172-116z" fill="#8084dc" stroke="#8084dc"/><path d="M644 690L472 806l217-6z" fill="#7e7fdd" stroke="#7e7fdd"/><path d="M644 690l45 110 174-81z" fill="#767cd0" stroke="#767cd0"/><path d="M863 719l-174 81 91 41z" fill="#737bcc" stroke="#737bcc"/><path d="M863 719l-83 122 252 32z" fill="#5c71cb" stroke="#5c71cb"/><path d="M863 719l169 154-104-162z" fill="#536dca" stroke="#536dca"/><path d="M928 711l104 162 106-32z" fill="#3c5ed0" stroke="#3c5ed0"/><path d="M928 711l210 130 19-217z" fill="#315ad5" stroke="#315ad5"/><path d="M1157 624l-19 217 118-26z" fill="#1440e0" stroke="#1440e0"/><path d="M1157 624l99 191 72-102z" fill="#033be7" stroke="#033be7"/><path d="M1328 713l-72 102 202-8z" fill="#0020f2" stroke="#0020f2"/><path d="M1328 713l130 94-30-173z" fill="#001bf8" stroke="#001bf8"/><path d="M1428 634l30 173 93-141z" fill="#0015ff" stroke="#0015ff"/><path d="M1551 666l-93 141 108 38z" fill="#00f" stroke="#00f"/><path d="M-64 803l446 37-344-35z" fill="#7737aa" stroke="#7737aa"/><path d="M38 805l344 35-153-69z" fill="#7e4caf" stroke="#7e4caf"/><path d="M382 840l650 33-252-32z" fill="#767cd0" stroke="#767cd0"/><path d="M382 840l398 1-308-35z" fill="#807dda" stroke="#807dda"/><path d="M472 806l308 35-91-41z" fill="#7c7ed9" stroke="#7c7ed9"/><path d="M1032 873l534-28-428-4z" fill="#0434e7" stroke="#0434e7"/><path d="M1138 841l428 4-310-30z" fill="#0025ef" stroke="#0025ef"/><path d="M1256 815l310 30-108-38z" fill="#0010fa" stroke="#0010fa"/></svg>