<svg width="1358" height="661" xmlns="http://www.w3.org/2000/svg"><g><path d="M-110,-17L-98,701L-95,347Z" fill="#e08a88" stroke="#e08a88" fill-opacity="1" stroke-opacity="1"/><path d="M-110,-17L-95,347L-77,46Z" fill="#e16e64" stroke="#e16e64" fill-opacity="1" stroke-opacity="1"/><path d="M-110,-17L-77,46L42,-127Z" fill="#e52a54" stroke="#e52a54" fill-opacity="1" stroke-opacity="1"/><path d="M42,-127L-77,46L73,61Z" fill="#eb4357" stroke="#eb4357" fill-opacity="1" stroke-opacity="1"/><path d="M42,-127L73,61L226,-126Z" fill="#f53b56" stroke="#f53b56" fill-opacity="1" stroke-opacity="1"/><path d="M226,-126L73,61L223,112Z" fill="#fb705c" stroke="#fb705c" fill-opacity="1" stroke-opacity="1"/><path d="M226,-126L223,112L334,-30Z" fill="#fe7363" stroke="#fe7363" fill-opacity="1" stroke-opacity="1"/><path d="M226,-126L334,-30L529,-56Z" fill="#fe6d6d" stroke="#fe6d6d" fill-opacity="1" stroke-opacity="1"/><path d="M226,-126L529,-56L819,-119Z" fill="#fe7b81" stroke="#fe7b81" fill-opacity="1" stroke-opacity="1"/><path d="M334,-30L223,112L433,47Z" fill="#fe9e70" stroke="#fe9e70" fill-opacity="1" stroke-opacity="1"/><path d="M334,-30L433,47L529,-56Z" fill="#fe927a" stroke="#fe927a" fill-opacity="1" stroke-opacity="1"/><path d="M529,-56L433,47L501,104Z" fill="#ffad84" stroke="#ffad84" fill-opacity="1" stroke-opacity="1"/><path d="M529,-56L501,104L660,107Z" fill="#ffbd90" stroke="#ffbd90" fill-opacity="1" stroke-opacity="1"/><path d="M529,-56L660,107L719,-76Z" fill="#fb9f89" stroke="#fb9f89" fill-opacity="1" stroke-opacity="1"/><path d="M529,-56L719,-76L819,-119Z" fill="#f77d7e" stroke="#f77d7e" fill-opacity="1" stroke-opacity="1"/><path d="M719,-76L660,107L774,20Z" fill="#f6aa82" stroke="#f6aa82" fill-opacity="1" stroke-opacity="1"/><path d="M719,-76L774,20L819,-119Z" fill="#f28378" stroke="#f28378" fill-opacity="1" stroke-opacity="1"/><path d="M819,-119L774,20L993,-83Z" fill="#e17b76" stroke="#e17b76" fill-opacity="1" stroke-opacity="1"/><path d="M819,-119L993,-83L1276,-83Z" fill="#bb5f7a" stroke="#bb5f7a" fill-opacity="1" stroke-opacity="1"/><path d="M819,-119L1276,-83L1389,-100Z" fill="#984587" stroke="#984587" fill-opacity="1" stroke-opacity="1"/><path d="M993,-83L774,20L1008,75Z" fill="#d5957a" stroke="#d5957a" fill-opacity="1" stroke-opacity="1"/><path d="M993,-83L1008,75L1093,-24Z" fill="#bb7e7f" stroke="#bb7e7f" fill-opacity="1" stroke-opacity="1"/><path d="M993,-83L1093,-24L1276,-83Z" fill="#a35285" stroke="#a35285" fill-opacity="1" stroke-opacity="1"/><path d="M1093,-24L1008,75L1134,54Z" fill="#af8c87" stroke="#af8c87" fill-opacity="1" stroke-opacity="1"/><path d="M1093,-24L1134,54L1276,-83Z" fill="#97608d" stroke="#97608d" fill-opacity="1" stroke-opacity="1"/><path d="M1276,-83L1134,54L1229,81Z" fill="#8b6894" stroke="#8b6894" fill-opacity="1" stroke-opacity="1"/><path d="M1276,-83L1229,81L1410,65Z" fill="#7f589e" stroke="#7f589e" fill-opacity="1" stroke-opacity="1"/><path d="M1276,-83L1410,65L1389,-100Z" fill="#7f2fa0" stroke="#7f2fa0" fill-opacity="1" stroke-opacity="1"/><path d="M1389,-100L1410,65L1583,-30Z" fill="#7f23ac" stroke="#7f23ac" fill-opacity="1" stroke-opacity="1"/><path d="M1583,-30L1410,65L1523,127Z" fill="#8041b2" stroke="#8041b2" fill-opacity="1" stroke-opacity="1"/><path d="M1583,-30L1523,127L1626,174Z" fill="#8052b4" stroke="#8052b4" fill-opacity="1" stroke-opacity="1"/><path d="M-77,46L-95,347L-47,256Z" fill="#e39082" stroke="#e39082" fill-opacity="1" stroke-opacity="1"/><path d="M-77,46L-47,256L73,61Z" fill="#e97c65" stroke="#e97c65" fill-opacity="1" stroke-opacity="1"/><path d="M73,61L-47,256L100,281Z" fill="#eea77f" stroke="#eea77f" fill-opacity="1" stroke-opacity="1"/><path d="M73,61L100,281L223,112Z" fill="#f8a872" stroke="#f8a872" fill-opacity="1" stroke-opacity="1"/><path d="M223,112L100,281L273,194Z" fill="#fec782" stroke="#fec782" fill-opacity="1" stroke-opacity="1"/><path d="M223,112L273,194L330,204Z" fill="#fecf84" stroke="#fecf84" fill-opacity="1" stroke-opacity="1"/><path d="M223,112L330,204L433,47Z" fill="#fec47c" stroke="#fec47c" fill-opacity="1" stroke-opacity="1"/><path d="M433,47L330,204L501,104Z" fill="#ffd287" stroke="#ffd287" fill-opacity="1" stroke-opacity="1"/><path d="M501,104L330,204L489,282Z" fill="#fff4a2" stroke="#fff4a2" fill-opacity="1" stroke-opacity="1"/><path d="M501,104L489,282L632,280Z" fill="#fffcb8" stroke="#fffcb8" fill-opacity="1" stroke-opacity="1"/><path d="M501,104L632,280L660,107Z" fill="#fef3a9" stroke="#fef3a9" fill-opacity="1" stroke-opacity="1"/><path d="M660,107L632,280L824,275Z" fill="#f7fcb1" stroke="#f7fcb1" fill-opacity="1" stroke-opacity="1"/><path d="M660,107L824,275L774,20Z" fill="#f4e190" stroke="#f4e190" fill-opacity="1" stroke-opacity="1"/><path d="M774,20L824,275L923,203Z" fill="#e6ea97" stroke="#e6ea97" fill-opacity="1" stroke-opacity="1"/><path d="M774,20L923,203L1008,75Z" fill="#dac781" stroke="#dac781" fill-opacity="1" stroke-opacity="1"/><path d="M1008,75L923,203L1119,174Z" fill="#c0cf96" stroke="#c0cf96" fill-opacity="1" stroke-opacity="1"/><path d="M1008,75L1119,174L1134,54Z" fill="#adab8e" stroke="#adab8e" fill-opacity="1" stroke-opacity="1"/><path d="M1134,54L1119,174L1229,81Z" fill="#9a9d96" stroke="#9a9d96" fill-opacity="1" stroke-opacity="1"/><path d="M1229,81L1119,174L1282,209Z" fill="#8dabac" stroke="#8dabac" fill-opacity="1" stroke-opacity="1"/><path d="M1229,81L1282,209L1410,65Z" fill="#8087aa" stroke="#8087aa" fill-opacity="1" stroke-opacity="1"/><path d="M1410,65L1282,209L1435,202Z" fill="#808cbf" stroke="#808cbf" fill-opacity="1" stroke-opacity="1"/><path d="M1410,65L1435,202L1523,127Z" fill="#806fbe" stroke="#806fbe" fill-opacity="1" stroke-opacity="1"/><path d="M1523,127L1435,202L1626,174Z" fill="#8076cc" stroke="#8076cc" fill-opacity="1" stroke-opacity="1"/><path d="M-47,256L-95,347L84,426Z" fill="#e89b8a" stroke="#e89b8a" fill-opacity="1" stroke-opacity="1"/><path d="M-47,256L84,426L100,281Z" fill="#efa891" stroke="#efa891" fill-opacity="1" stroke-opacity="1"/><path d="M100,281L84,426L274,334Z" fill="#fabe8e" stroke="#fabe8e" fill-opacity="1" stroke-opacity="1"/><path d="M100,281L274,334L273,194Z" fill="#fecb9d" stroke="#fecb9d" fill-opacity="1" stroke-opacity="1"/><path d="M273,194L274,334L330,204Z" fill="#fedb9e" stroke="#fedb9e" fill-opacity="1" stroke-opacity="1"/><path d="M330,204L274,334L401,410Z" fill="#fee4a9" stroke="#fee4a9" fill-opacity="1" stroke-opacity="1"/><path d="M330,204L401,410L489,282Z" fill="#fff1b6" stroke="#fff1b6" fill-opacity="1" stroke-opacity="1"/><path d="M489,282L401,410L565,356Z" fill="#fff8b4" stroke="#fff8b4" fill-opacity="1" stroke-opacity="1"/><path d="M489,282L565,356L632,280Z" fill="#fffeca" stroke="#fffeca" fill-opacity="1" stroke-opacity="1"/><path d="M632,280L565,356L665,385Z" fill="#fdfec0" stroke="#fdfec0" fill-opacity="1" stroke-opacity="1"/><path d="M632,280L665,385L824,275Z" fill="#f7fcbe" stroke="#f7fcbe" fill-opacity="1" stroke-opacity="1"/><path d="M824,275L665,385L806,414Z" fill="#f3fbad" stroke="#f3fbad" fill-opacity="1" stroke-opacity="1"/><path d="M824,275L806,414L994,341Z" fill="#dff2ae" stroke="#dff2ae" fill-opacity="1" stroke-opacity="1"/><path d="M824,275L994,341L923,203Z" fill="#d7efb9" stroke="#d7efb9" fill-opacity="1" stroke-opacity="1"/><path d="M923,203L994,341L1119,174Z" fill="#c1e2b2" stroke="#c1e2b2" fill-opacity="1" stroke-opacity="1"/><path d="M1119,174L994,341L1130,388Z" fill="#afd4c3" stroke="#afd4c3" fill-opacity="1" stroke-opacity="1"/><path d="M1119,174L1130,388L1282,209Z" fill="#95c1ca" stroke="#95c1ca" fill-opacity="1" stroke-opacity="1"/><path d="M1282,209L1130,388L1249,408Z" fill="#8ab9ca" stroke="#8ab9ca" fill-opacity="1" stroke-opacity="1"/><path d="M1282,209L1249,408L1435,202Z" fill="#80a4de" stroke="#80a4de" fill-opacity="1" stroke-opacity="1"/><path d="M1435,202L1249,408L1474,430Z" fill="#8098d8" stroke="#8098d8" fill-opacity="1" stroke-opacity="1"/><path d="M1435,202L1474,430L1605,364Z" fill="#8080e6" stroke="#8080e6" fill-opacity="1" stroke-opacity="1"/><path d="M1435,202L1605,364L1626,174Z" fill="#8080e6" stroke="#8080e6" fill-opacity="1" stroke-opacity="1"/><path d="M1626,174L1605,364L1617,478Z" fill="#8080e4" stroke="#8080e4" fill-opacity="1" stroke-opacity="1"/><path d="M-95,347L-98,701L-81,508Z" fill="#9e7589" stroke="#9e7589" fill-opacity="1" stroke-opacity="1"/><path d="M-95,347L-81,508L84,426Z" fill="#d49880" stroke="#d49880" fill-opacity="1" stroke-opacity="1"/><path d="M84,426L-81,508L134,538Z" fill="#be9f86" stroke="#be9f86" fill-opacity="1" stroke-opacity="1"/><path d="M84,426L134,538L177,539Z" fill="#c0ab8b" stroke="#c0ab8b" fill-opacity="1" stroke-opacity="1"/><path d="M84,426L177,539L274,334Z" fill="#e7c385" stroke="#e7c385" fill-opacity="1" stroke-opacity="1"/><path d="M274,334L177,539L342,508Z" fill="#ded58e" stroke="#ded58e" fill-opacity="1" stroke-opacity="1"/><path d="M274,334L342,508L401,410Z" fill="#efe599" stroke="#efe599" fill-opacity="1" stroke-opacity="1"/><path d="M401,410L342,508L573,497Z" fill="#daf3a5" stroke="#daf3a5" fill-opacity="1" stroke-opacity="1"/><path d="M401,410L573,497L565,356Z" fill="#effab0" stroke="#effab0" fill-opacity="1" stroke-opacity="1"/><path d="M565,356L573,497L665,385Z" fill="#f1ffb7" stroke="#f1ffb7" fill-opacity="1" stroke-opacity="1"/><path d="M665,385L573,497L731,473Z" fill="#defdb1" stroke="#defdb1" fill-opacity="1" stroke-opacity="1"/><path d="M665,385L731,473L806,414Z" fill="#e3fbaa" stroke="#e3fbaa" fill-opacity="1" stroke-opacity="1"/><path d="M806,414L731,473L883,467Z" fill="#d0f7a4" stroke="#d0f7a4" fill-opacity="1" stroke-opacity="1"/><path d="M806,414L883,467L994,341Z" fill="#d0f0a5" stroke="#d0f0a5" fill-opacity="1" stroke-opacity="1"/><path d="M994,341L883,467L995,489Z" fill="#baeba3" stroke="#baeba3" fill-opacity="1" stroke-opacity="1"/><path d="M994,341L995,489L1130,388Z" fill="#afdcac" stroke="#afdcac" fill-opacity="1" stroke-opacity="1"/><path d="M1130,388L995,489L1160,493Z" fill="#8dd1b0" stroke="#8dd1b0" fill-opacity="1" stroke-opacity="1"/><path d="M1130,388L1160,493L1249,408Z" fill="#81c0b9" stroke="#81c0b9" fill-opacity="1" stroke-opacity="1"/><path d="M1249,408L1160,493L1331,553Z" fill="#56adc2" stroke="#56adc2" fill-opacity="1" stroke-opacity="1"/><path d="M1249,408L1331,553L1458,472Z" fill="#589dcb" stroke="#589dcb" fill-opacity="1" stroke-opacity="1"/><path d="M1249,408L1458,472L1474,430Z" fill="#6996d0" stroke="#6996d0" fill-opacity="1" stroke-opacity="1"/><path d="M1474,430L1458,472L1617,478Z" fill="#607fd8" stroke="#607fd8" fill-opacity="1" stroke-opacity="1"/><path d="M1474,430L1617,478L1605,364Z" fill="#6e80d9" stroke="#6e80d9" fill-opacity="1" stroke-opacity="1"/><path d="M-81,508L-98,701L52,701Z" fill="#6646a6" stroke="#6646a6" fill-opacity="1" stroke-opacity="1"/><path d="M-81,508L52,701L134,538Z" fill="#81709d" stroke="#81709d" fill-opacity="1" stroke-opacity="1"/><path d="M134,538L52,701L177,539Z" fill="#837ca2" stroke="#837ca2" fill-opacity="1" stroke-opacity="1"/><path d="M177,539L52,701L277,628Z" fill="#7c77ab" stroke="#7c77ab" fill-opacity="1" stroke-opacity="1"/><path d="M177,539L277,628L342,508Z" fill="#a2aba4" stroke="#a2aba4" fill-opacity="1" stroke-opacity="1"/><path d="M342,508L277,628L364,636Z" fill="#8da9b5" stroke="#8da9b5" fill-opacity="1" stroke-opacity="1"/><path d="M342,508L364,636L573,497Z" fill="#a9ceb6" stroke="#a9ceb6" fill-opacity="1" stroke-opacity="1"/><path d="M573,497L364,636L563,667Z" fill="#87bace" stroke="#87bace" fill-opacity="1" stroke-opacity="1"/><path d="M573,497L563,667L644,690Z" fill="#7fb7dd" stroke="#7fb7dd" fill-opacity="1" stroke-opacity="1"/><path d="M573,497L644,690L731,473Z" fill="#a1d6c6" stroke="#a1d6c6" fill-opacity="1" stroke-opacity="1"/><path d="M731,473L644,690L863,719Z" fill="#75afcf" stroke="#75afcf" fill-opacity="1" stroke-opacity="1"/><path d="M731,473L863,719L883,467Z" fill="#90ceb9" stroke="#90ceb9" fill-opacity="1" stroke-opacity="1"/><path d="M883,467L863,719L928,711Z" fill="#5ca2cb" stroke="#5ca2cb" fill-opacity="1" stroke-opacity="1"/><path d="M883,467L928,711L995,489Z" fill="#78c4b8" stroke="#78c4b8" fill-opacity="1" stroke-opacity="1"/><path d="M995,489L928,711L1157,624Z" fill="#409dcb" stroke="#409dcb" fill-opacity="1" stroke-opacity="1"/><path d="M995,489L1157,624L1160,493Z" fill="#5bb0c1" stroke="#5bb0c1" fill-opacity="1" stroke-opacity="1"/><path d="M1160,493L1157,624L1331,553Z" fill="#2f90d2" stroke="#2f90d2" fill-opacity="1" stroke-opacity="1"/><path d="M1331,553L1157,624L1328,713Z" fill="#0061ea" stroke="#0061ea" fill-opacity="1" stroke-opacity="1"/><path d="M1331,553L1328,713L1428,634Z" fill="#004df3" stroke="#004df3" fill-opacity="1" stroke-opacity="1"/><path d="M1331,553L1428,634L1458,472Z" fill="#276ce5" stroke="#276ce5" fill-opacity="1" stroke-opacity="1"/><path d="M1458,472L1428,634L1551,666Z" fill="#0e4bf7" stroke="#0e4bf7" fill-opacity="1" stroke-opacity="1"/><path d="M1458,472L1551,666L1617,478Z" fill="#305fe9" stroke="#305fe9" fill-opacity="1" stroke-opacity="1"/><path d="M1617,478L1551,666L1566,845Z" fill="#0022ff" stroke="#0022ff" fill-opacity="1" stroke-opacity="1"/><path d="M-98,701L-64,803L52,701Z" fill="#6718a6" stroke="#6718a6" fill-opacity="1" stroke-opacity="1"/><path d="M52,701L-64,803L38,805Z" fill="#6c21a7" stroke="#6c21a7" fill-opacity="1" stroke-opacity="1"/><path d="M52,701L38,805L229,771Z" fill="#7535aa" stroke="#7535aa" fill-opacity="1" stroke-opacity="1"/><path d="M52,701L229,771L277,628Z" fill="#7d55ac" stroke="#7d55ac" fill-opacity="1" stroke-opacity="1"/><path d="M277,628L229,771L364,636Z" fill="#7f76b9" stroke="#7f76b9" fill-opacity="1" stroke-opacity="1"/><path d="M364,636L229,771L382,840Z" fill="#7f63bd" stroke="#7f63bd" fill-opacity="1" stroke-opacity="1"/><path d="M364,636L382,840L472,806Z" fill="#7f72c8" stroke="#7f72c8" fill-opacity="1" stroke-opacity="1"/><path d="M364,636L472,806L563,667Z" fill="#7f85d0" stroke="#7f85d0" fill-opacity="1" stroke-opacity="1"/><path d="M563,667L472,806L644,690Z" fill="#8084dc" stroke="#8084dc" fill-opacity="1" stroke-opacity="1"/><path d="M644,690L472,806L689,800Z" fill="#7e7fdd" stroke="#7e7fdd" fill-opacity="1" stroke-opacity="1"/><path d="M644,690L689,800L863,719Z" fill="#767cd0" stroke="#767cd0" fill-opacity="1" stroke-opacity="1"/><path d="M863,719L689,800L780,841Z" fill="#737bcc" stroke="#737bcc" fill-opacity="1" stroke-opacity="1"/><path d="M863,719L780,841L1032,873Z" fill="#5c71cb" stroke="#5c71cb" fill-opacity="1" stroke-opacity="1"/><path d="M863,719L1032,873L928,711Z" fill="#536dca" stroke="#536dca" fill-opacity="1" stroke-opacity="1"/><path d="M928,711L1032,873L1138,841Z" fill="#3c5ed0" stroke="#3c5ed0" fill-opacity="1" stroke-opacity="1"/><path d="M928,711L1138,841L1157,624Z" fill="#315ad5" stroke="#315ad5" fill-opacity="1" stroke-opacity="1"/><path d="M1157,624L1138,841L1256,815Z" fill="#1440e0" stroke="#1440e0" fill-opacity="1" stroke-opacity="1"/><path d="M1157,624L1256,815L1328,713Z" fill="#033be7" stroke="#033be7" fill-opacity="1" stroke-opacity="1"/><path d="M1328,713L1256,815L1458,807Z" fill="#0020f2" stroke="#0020f2" fill-opacity="1" stroke-opacity="1"/><path d="M1328,713L1458,807L1428,634Z" fill="#001bf8" stroke="#001bf8" fill-opacity="1" stroke-opacity="1"/><path d="M1428,634L1458,807L1551,666Z" fill="#0015ff" stroke="#0015ff" fill-opacity="1" stroke-opacity="1"/><path d="M1551,666L1458,807L1566,845Z" fill="#0000ff" stroke="#0000ff" fill-opacity="1" stroke-opacity="1"/><path d="M-64,803L382,840L38,805Z" fill="#7737aa" stroke="#7737aa" fill-opacity="1" stroke-opacity="1"/><path d="M38,805L382,840L229,771Z" fill="#7e4caf" stroke="#7e4caf" fill-opacity="1" stroke-opacity="1"/><path d="M382,840L1032,873L780,841Z" fill="#767cd0" stroke="#767cd0" fill-opacity="1" stroke-opacity="1"/><path d="M382,840L780,841L472,806Z" fill="#807dda" stroke="#807dda" fill-opacity="1" stroke-opacity="1"/><path d="M472,806L780,841L689,800Z" fill="#7c7ed9" stroke="#7c7ed9" fill-opacity="1" stroke-opacity="1"/><path d="M1032,873L1566,845L1138,841Z" fill="#0434e7" stroke="#0434e7" fill-opacity="1" stroke-opacity="1"/><path d="M1138,841L1566,845L1256,815Z" fill="#0025ef" stroke="#0025ef" fill-opacity="1" stroke-opacity="1"/><path d="M1256,815L1566,845L1458,807Z" fill="#0010fa" stroke="#0010fa" fill-opacity="1" stroke-opacity="1"/></g></svg>